<svg width="127" height="18" viewBox="0 0 127 18" fill="none" xmlns="http://www.w3.org/2000/svg">
<path d="M25.691 0.899999L20.355 17H17.181L13.202 5.086L9.154 17H5.957L0.621 0.899999H3.726L7.728 13.136L11.891 0.899999H14.651L18.722 13.205L22.839 0.899999H25.691ZM40.2018 14.493V17H28.1268V0.899999H39.8798V3.407H31.1168V7.593H38.8908V10.054H31.1168V14.493H40.2018ZM43.535 0.899999H46.525V14.47H54.943V17H43.535V0.899999ZM64.4636 17.23C62.8383 17.23 61.3663 16.8773 60.0476 16.172C58.7443 15.4513 57.7169 14.4623 56.9656 13.205C56.2296 11.9477 55.8616 10.5293 55.8616 8.95C55.8616 7.37067 56.2373 5.95233 56.9886 4.695C57.7399 3.43767 58.7673 2.45633 60.0706 1.751C61.3893 1.03033 62.8613 0.669999 64.4866 0.669999C65.8053 0.669999 67.0089 0.899999 68.0976 1.36C69.1863 1.82 70.1063 2.487 70.8576 3.361L68.9256 5.178C67.7603 3.92067 66.3266 3.292 64.6246 3.292C63.5206 3.292 62.5316 3.53733 61.6576 4.028C60.7836 4.50333 60.1013 5.17033 59.6106 6.029C59.1199 6.88767 58.8746 7.86133 58.8746 8.95C58.8746 10.0387 59.1199 11.0123 59.6106 11.871C60.1013 12.7297 60.7836 13.4043 61.6576 13.895C62.5316 14.3703 63.5206 14.608 64.6246 14.608C66.3266 14.608 67.7603 13.9717 68.9256 12.699L70.8576 14.539C70.1063 15.413 69.1786 16.08 68.0746 16.54C66.9859 17 65.7823 17.23 64.4636 17.23ZM80.9066 17.23C79.266 17.23 77.7863 16.8773 76.4676 16.172C75.149 15.4513 74.114 14.4623 73.3626 13.205C72.6113 11.9323 72.2356 10.514 72.2356 8.95C72.2356 7.386 72.6113 5.97533 73.3626 4.718C74.114 3.44533 75.149 2.45633 76.4676 1.751C77.7863 1.03033 79.266 0.669999 80.9066 0.669999C82.5473 0.669999 84.027 1.03033 85.3456 1.751C86.6643 2.45633 87.6993 3.43767 88.4506 4.695C89.202 5.95233 89.5776 7.37067 89.5776 8.95C89.5776 10.5293 89.202 11.9477 88.4506 13.205C87.6993 14.4623 86.6643 15.4513 85.3456 16.172C84.027 16.8773 82.5473 17.23 80.9066 17.23ZM80.9066 14.608C81.98 14.608 82.946 14.3703 83.8046 13.895C84.6633 13.4043 85.338 12.7297 85.8286 11.871C86.3193 10.997 86.5646 10.0233 86.5646 8.95C86.5646 7.87667 86.3193 6.91067 85.8286 6.052C85.338 5.178 84.6633 4.50333 83.8046 4.028C82.946 3.53733 81.98 3.292 80.9066 3.292C79.8333 3.292 78.8673 3.53733 78.0086 4.028C77.15 4.50333 76.4753 5.178 75.9846 6.052C75.494 6.91067 75.2486 7.87667 75.2486 8.95C75.2486 10.0233 75.494 10.997 75.9846 11.871C76.4753 12.7297 77.15 13.4043 78.0086 13.895C78.8673 14.3703 79.8333 14.608 80.9066 14.608ZM107.536 17L107.513 6.328L102.223 15.16H100.889L95.599 6.466V17H92.747V0.899999H95.208L101.602 11.572L107.881 0.899999H110.342L110.365 17H107.536ZM126.789 14.493V17H114.714V0.899999H126.467V3.407H117.704V7.593H125.478V10.054H117.704V14.493H126.789Z" fill="#4A4A4A"/>
</svg>
